<svg aria-hidden="true" style="position: absolute; width: 0; height: 0; overflow: hidden;" version="1.1"
     xmlns="http://www.w3.org/2000/svg" xmlns:xlink="http://www.w3.org/1999/xlink">
  <defs>
    <symbol id="language" viewBox="0 0 24 24">
      <path d="M16.359 14.016h3.375c0.141-0.656 0.281-1.313 0.281-2.016s-0.141-1.359-0.281-2.016h-3.375c0.094 0.656 0.141 1.313 0.141 2.016s-0.047 1.359-0.141 2.016zM14.578 19.547c1.828-0.609 3.422-1.922 4.359-3.563h-2.953c-0.328 1.266-0.797 2.438-1.406 3.563zM14.344 14.016c0.094-0.656 0.141-1.313 0.141-2.016s-0.047-1.359-0.141-2.016h-4.688c-0.094 0.656-0.141 1.313-0.141 2.016s0.047 1.359 0.141 2.016h4.688zM12 19.969c0.844-1.219 1.5-2.531 1.922-3.984h-3.844c0.422 1.453 1.078 2.766 1.922 3.984zM8.016 8.016c0.328-1.266 0.797-2.438 1.406-3.563-1.828 0.609-3.422 1.922-4.359 3.563h2.953zM5.063 15.984c0.938 1.641 2.531 2.953 4.359 3.563-0.609-1.125-1.078-2.297-1.406-3.563h-2.953zM4.266 14.016h3.375c-0.094-0.656-0.141-1.313-0.141-2.016s0.047-1.359 0.141-2.016h-3.375c-0.141 0.656-0.281 1.313-0.281 2.016s0.141 1.359 0.281 2.016zM12 4.031c-0.844 1.219-1.5 2.531-1.922 3.984h3.844c-0.422-1.453-1.078-2.766-1.922-3.984zM18.938 8.016c-0.938-1.641-2.531-2.953-4.359-3.563 0.609 1.125 1.078 2.297 1.406 3.563h2.953zM12 2.016c5.531 0 9.984 4.453 9.984 9.984s-4.453 9.984-9.984 9.984-9.984-4.453-9.984-9.984 4.453-9.984 9.984-9.984z"/>
    </symbol>
    <symbol id="menu" viewBox="0 0 24 24">
      <path d="M3 6h18v2.016h-18v-2.016zM3 12.984v-1.969h18v1.969h-18zM3 18v-2.016h18v2.016h-18z"/>
    </symbol>
    <symbol id="account_circle" viewBox="0 0 24 24">
      <path d="M12 19.219c2.484 0 4.688-1.313 6-3.234-0.047-1.969-4.031-3.094-6-3.094-2.016 0-5.953 1.125-6 3.094 1.313 1.922 3.516 3.234 6 3.234zM12 5.016c-1.641 0-3 1.359-3 3s1.359 3 3 3 3-1.359 3-3-1.359-3-3-3zM12 2.016c5.531 0 9.984 4.453 9.984 9.984s-4.453 9.984-9.984 9.984-9.984-4.453-9.984-9.984 4.453-9.984 9.984-9.984z"/>
    </symbol>
    <symbol id="add_circle" viewBox="0 0 24 24">
      <path d="M12 20.016c4.406 0 8.016-3.609 8.016-8.016s-3.609-8.016-8.016-8.016-8.016 3.609-8.016 8.016 3.609 8.016 8.016 8.016zM12 2.016c5.531 0 9.984 4.453 9.984 9.984s-4.453 9.984-9.984 9.984-9.984-4.453-9.984-9.984 4.453-9.984 9.984-9.984zM12.984 6.984v4.031h4.031v1.969h-4.031v4.031h-1.969v-4.031h-4.031v-1.969h4.031v-4.031h1.969z"/>
    </symbol>
    <symbol id="poll" viewBox="0 0 24 24">
      <path d="M17.016 17.016v-4.031h-2.016v4.031h2.016zM12.984 17.016v-10.031h-1.969v10.031h1.969zM9 17.016v-7.031h-2.016v7.031h2.016zM18.984 3c1.078 0 2.016 0.938 2.016 2.016v13.969c0 1.078-0.938 2.016-2.016 2.016h-13.969c-1.078 0-2.016-0.938-2.016-2.016v-13.969c0-1.078 0.938-2.016 2.016-2.016h13.969z"/>
    </symbol>
    <symbol id="help" viewBox="0 0 24 24">
      <path d="M15.047 11.25c0.563-0.563 0.938-1.359 0.938-2.25 0-2.203-1.781-3.984-3.984-3.984s-3.984 1.781-3.984 3.984h1.969c0-1.078 0.938-2.016 2.016-2.016s2.016 0.938 2.016 2.016c0 0.563-0.234 1.031-0.609 1.406l-1.219 1.266c-0.703 0.75-1.172 1.734-1.172 2.813v0.516h1.969c0-1.5 0.469-2.063 1.172-2.813zM12.984 18.984v-1.969h-1.969v1.969h1.969zM12 2.016c5.531 0 9.984 4.453 9.984 9.984s-4.453 9.984-9.984 9.984-9.984-4.453-9.984-9.984 4.453-9.984 9.984-9.984z"/>
    </symbol>
    <symbol id="list" viewBox="0 0 24 24">
      <path d="M4 20.5v3c0 0.266-0.234 0.5-0.5 0.5h-3c-0.266 0-0.5-0.234-0.5-0.5v-3c0-0.266 0.234-0.5 0.5-0.5h3c0.266 0 0.5 0.234 0.5 0.5zM4 14.5v3c0 0.266-0.234 0.5-0.5 0.5h-3c-0.266 0-0.5-0.234-0.5-0.5v-3c0-0.266 0.234-0.5 0.5-0.5h3c0.266 0 0.5 0.234 0.5 0.5zM4 8.5v3c0 0.266-0.234 0.5-0.5 0.5h-3c-0.266 0-0.5-0.234-0.5-0.5v-3c0-0.266 0.234-0.5 0.5-0.5h3c0.266 0 0.5 0.234 0.5 0.5zM28 20.5v3c0 0.266-0.234 0.5-0.5 0.5h-21c-0.266 0-0.5-0.234-0.5-0.5v-3c0-0.266 0.234-0.5 0.5-0.5h21c0.266 0 0.5 0.234 0.5 0.5zM4 2.5v3c0 0.266-0.234 0.5-0.5 0.5h-3c-0.266 0-0.5-0.234-0.5-0.5v-3c0-0.266 0.234-0.5 0.5-0.5h3c0.266 0 0.5 0.234 0.5 0.5zM28 14.5v3c0 0.266-0.234 0.5-0.5 0.5h-21c-0.266 0-0.5-0.234-0.5-0.5v-3c0-0.266 0.234-0.5 0.5-0.5h21c0.266 0 0.5 0.234 0.5 0.5zM28 8.5v3c0 0.266-0.234 0.5-0.5 0.5h-21c-0.266 0-0.5-0.234-0.5-0.5v-3c0-0.266 0.234-0.5 0.5-0.5h21c0.266 0 0.5 0.234 0.5 0.5zM28 2.5v3c0 0.266-0.234 0.5-0.5 0.5h-21c-0.266 0-0.5-0.234-0.5-0.5v-3c0-0.266 0.234-0.5 0.5-0.5h21c0.266 0 0.5 0.234 0.5 0.5z"/>
    </symbol>
    <symbol id="list-o" viewBox="0 0 24 24">
      <path d="M6.984 5.016h14.016v1.969h-14.016v-1.969zM6.984 12.984v-1.969h14.016v1.969h-14.016zM6.984 18.984v-1.969h14.016v1.969h-14.016zM3.984 16.5c0.844 0 1.5 0.703 1.5 1.5s-0.703 1.5-1.5 1.5-1.5-0.703-1.5-1.5 0.656-1.5 1.5-1.5zM3.984 4.5c0.844 0 1.5 0.656 1.5 1.5s-0.656 1.5-1.5 1.5-1.5-0.656-1.5-1.5 0.656-1.5 1.5-1.5zM3.984 10.5c0.844 0 1.5 0.656 1.5 1.5s-0.656 1.5-1.5 1.5-1.5-0.656-1.5-1.5 0.656-1.5 1.5-1.5z"/>
    </symbol>
    <symbol id="list-alt" viewBox="0 0 28 28">
      <path d="M6 18.5v1c0 0.266-0.234 0.5-0.5 0.5h-1c-0.266 0-0.5-0.234-0.5-0.5v-1c0-0.266 0.234-0.5 0.5-0.5h1c0.266 0 0.5 0.234 0.5 0.5zM6 14.5v1c0 0.266-0.234 0.5-0.5 0.5h-1c-0.266 0-0.5-0.234-0.5-0.5v-1c0-0.266 0.234-0.5 0.5-0.5h1c0.266 0 0.5 0.234 0.5 0.5zM6 10.5v1c0 0.266-0.234 0.5-0.5 0.5h-1c-0.266 0-0.5-0.234-0.5-0.5v-1c0-0.266 0.234-0.5 0.5-0.5h1c0.266 0 0.5 0.234 0.5 0.5zM24 18.5v1c0 0.266-0.234 0.5-0.5 0.5h-15c-0.266 0-0.5-0.234-0.5-0.5v-1c0-0.266 0.234-0.5 0.5-0.5h15c0.266 0 0.5 0.234 0.5 0.5zM24 14.5v1c0 0.266-0.234 0.5-0.5 0.5h-15c-0.266 0-0.5-0.234-0.5-0.5v-1c0-0.266 0.234-0.5 0.5-0.5h15c0.266 0 0.5 0.234 0.5 0.5zM24 10.5v1c0 0.266-0.234 0.5-0.5 0.5h-15c-0.266 0-0.5-0.234-0.5-0.5v-1c0-0.266 0.234-0.5 0.5-0.5h15c0.266 0 0.5 0.234 0.5 0.5zM26 21.5v-13c0-0.266-0.234-0.5-0.5-0.5h-23c-0.266 0-0.5 0.234-0.5 0.5v13c0 0.266 0.234 0.5 0.5 0.5h23c0.266 0 0.5-0.234 0.5-0.5zM28 4.5v17c0 1.375-1.125 2.5-2.5 2.5h-23c-1.375 0-2.5-1.125-2.5-2.5v-17c0-1.375 1.125-2.5 2.5-2.5h23c1.375 0 2.5 1.125 2.5 2.5z"/>
    </symbol>
    <symbol id="more_vert" viewBox="0 0 24 24">
      <path d="M12 15.984c1.078 0 2.016 0.938 2.016 2.016s-0.938 2.016-2.016 2.016-2.016-0.938-2.016-2.016 0.938-2.016 2.016-2.016zM12 9.984c1.078 0 2.016 0.938 2.016 2.016s-0.938 2.016-2.016 2.016-2.016-0.938-2.016-2.016 0.938-2.016 2.016-2.016zM12 8.016c-1.078 0-2.016-0.938-2.016-2.016s0.938-2.016 2.016-2.016 2.016 0.938 2.016 2.016-0.938 2.016-2.016 2.016z"/>
    </symbol>
    <symbol id="notifications" viewBox="0 0 24 24">
      <path d="M18 15.984l2.016 2.016v0.984h-16.031v-0.984l2.016-2.016v-4.969c0-3.094 1.641-5.625 4.5-6.328v-0.703c0-0.844 0.656-1.5 1.5-1.5s1.5 0.656 1.5 1.5v0.703c2.859 0.703 4.5 3.281 4.5 6.328v4.969zM12 21.984c-1.125 0-2.016-0.891-2.016-1.969h4.031c0 1.078-0.938 1.969-2.016 1.969z"/>
    </symbol>
    <symbol id="perm_data_setting" viewBox="0 0 24 24">
      <path d="M18.984 20.484c0.844 0 1.5-0.656 1.5-1.5s-0.656-1.5-1.5-1.5-1.5 0.656-1.5 1.5 0.656 1.5 1.5 1.5zM22.688 19.5l1.078 0.797c0.094 0.094 0.094 0.234 0.047 0.328l-0.984 1.734c-0.047 0.094-0.234 0.188-0.328 0.141l-1.219-0.516c-0.234 0.188-0.563 0.328-0.844 0.469l-0.188 1.359c0 0.141-0.141 0.188-0.281 0.188h-1.969c-0.141 0-0.281-0.047-0.281-0.188l-0.188-1.359c-0.328-0.141-0.563-0.281-0.844-0.469l-1.219 0.516c-0.141 0.047-0.281-0.047-0.328-0.141l-0.984-1.734c-0.047-0.094-0.047-0.234 0.047-0.328l1.078-0.797c0-0.141-0.047-0.328-0.047-0.516s0.047-0.328 0.047-0.469l-1.078-0.844c-0.094-0.094-0.094-0.234-0.047-0.328l0.984-1.734c0.047-0.094 0.234-0.141 0.328-0.094l1.219 0.516c0.281-0.188 0.563-0.375 0.844-0.516l0.188-1.313c0-0.141 0.141-0.188 0.281-0.188h1.969c0.141 0 0.281 0.047 0.281 0.188l0.188 1.313c0.328 0.141 0.563 0.328 0.844 0.516l1.219-0.516c0.141-0.047 0.281 0 0.328 0.094l0.984 1.734c0.047 0.094 0.047 0.234-0.047 0.328l-1.078 0.844c0.047 0.141 0.047 0.281 0.047 0.469s-0.047 0.375-0.047 0.516zM18.984 11.484c-4.125 0-7.5 3.375-7.5 7.5 0 0.328 0.047 0.703 0.094 1.031h-11.578l20.016-20.016-0.047 11.578c-0.328-0.047-0.656-0.094-0.984-0.094z"/>
    </symbol>
    <symbol id="playlist_add_check" viewBox="0 0 24 24">
      <path d="M21.516 11.484l1.5 1.5-6.984 7.031-4.547-4.5 1.5-1.5 3.047 3zM2.016 15.984v-1.969h7.969v1.969h-7.969zM14.016 6v2.016h-12v-2.016h12zM14.016 9.984v2.016h-12v-2.016h12z"/>
    </symbol>
    <symbol id="settings" viewBox="0 0 24 24">
      <path d="M12 15.516c1.922 0 3.516-1.594 3.516-3.516s-1.594-3.516-3.516-3.516-3.516 1.594-3.516 3.516 1.594 3.516 3.516 3.516zM19.453 12.984l2.109 1.641c0.188 0.141 0.234 0.422 0.094 0.656l-2.016 3.469c-0.141 0.234-0.375 0.281-0.609 0.188l-2.484-0.984c-0.516 0.375-1.078 0.75-1.688 0.984l-0.375 2.625c-0.047 0.234-0.234 0.422-0.469 0.422h-4.031c-0.234 0-0.422-0.188-0.469-0.422l-0.375-2.625c-0.609-0.234-1.172-0.563-1.688-0.984l-2.484 0.984c-0.234 0.094-0.469 0.047-0.609-0.188l-2.016-3.469c-0.141-0.234-0.094-0.516 0.094-0.656l2.109-1.641c-0.047-0.328-0.047-0.656-0.047-0.984s0-0.656 0.047-0.984l-2.109-1.641c-0.188-0.141-0.234-0.422-0.094-0.656l2.016-3.469c0.141-0.234 0.375-0.281 0.609-0.188l2.484 0.984c0.516-0.375 1.078-0.75 1.688-0.984l0.375-2.625c0.047-0.234 0.234-0.422 0.469-0.422h4.031c0.234 0 0.422 0.188 0.469 0.422l0.375 2.625c0.609 0.234 1.172 0.563 1.688 0.984l2.484-0.984c0.234-0.094 0.469-0.047 0.609 0.188l2.016 3.469c0.141 0.234 0.094 0.516-0.094 0.656l-2.109 1.641c0.047 0.328 0.047 0.656 0.047 0.984s0 0.656-0.047 0.984z"/>
    </symbol>
    <symbol id="trending_up" viewBox="0 0 24 24">
      <path d="M15.984 6h6v6l-2.297-2.297-6.281 6.281-3.984-3.984-6 6-1.406-1.406 7.406-7.406 3.984 3.984 4.875-4.875z"/>
    </symbol>
    <symbol id="work" viewBox="0 0 24 24">
      <path d="M14.016 6v-2.016h-4.031v2.016h4.031zM20.016 6c1.125 0 1.969 0.891 1.969 2.016v10.969c0 1.125-0.844 2.016-1.969 2.016h-16.031c-1.125 0-1.969-0.891-1.969-2.016v-10.969c0-1.125 0.844-2.016 1.969-2.016h4.031v-2.016c0-1.125 0.844-1.969 1.969-1.969h4.031c1.125 0 1.969 0.844 1.969 1.969v2.016h4.031z"/>
    </symbol>
    <symbol id="mode_edit" viewBox="0 0 24 24">
      <path d="M20.719 7.031l-1.828 1.828-3.75-3.75 1.828-1.828c0.375-0.375 1.031-0.375 1.406 0l2.344 2.344c0.375 0.375 0.375 1.031 0 1.406zM3 17.25l11.063-11.063 3.75 3.75-11.063 11.063h-3.75v-3.75z"/>
    </symbol>
    <symbol id="close" viewBox="0 0 24 24">
      <path d="M18.984 6.422l-5.578 5.578 5.578 5.578-1.406 1.406-5.578-5.578-5.578 5.578-1.406-1.406 5.578-5.578-5.578-5.578 1.406-1.406 5.578 5.578 5.578-5.578z"/>
    </symbol>
    <symbol id="cancel" viewBox="0 0 24 24">
      <path d="M17.016 15.609l-3.609-3.609 3.609-3.609-1.406-1.406-3.609 3.609-3.609-3.609-1.406 1.406 3.609 3.609-3.609 3.609 1.406 1.406 3.609-3.609 3.609 3.609zM12 2.016c5.531 0 9.984 4.453 9.984 9.984s-4.453 9.984-9.984 9.984-9.984-4.453-9.984-9.984 4.453-9.984 9.984-9.984z"/>
    </symbol>
    <symbol id="photo_library" viewBox="0 0 24 24">
      <path d="M2.016 6h1.969v14.016h14.016v1.969h-14.016c-1.078 0-1.969-0.891-1.969-1.969v-14.016zM11.016 12l-3 3.984h12l-4.031-4.969-2.953 3.703zM21.984 15.984c0 1.078-0.891 2.016-1.969 2.016h-12c-1.078 0-2.016-0.938-2.016-2.016v-12c0-1.078 0.938-1.969 2.016-1.969h12c1.078 0 1.969 0.891 1.969 1.969v12z"/>
    </symbol>
    <symbol id="search" viewBox="0 0 24 24">
      <path d="M9.516 14.016c2.484 0 4.5-2.016 4.5-4.5s-2.016-4.5-4.5-4.5-4.5 2.016-4.5 4.5 2.016 4.5 4.5 4.5zM15.516 14.016l4.969 4.969-1.5 1.5-4.969-4.969v-0.797l-0.281-0.281c-1.125 0.984-2.625 1.547-4.219 1.547-3.609 0-6.516-2.859-6.516-6.469s2.906-6.516 6.516-6.516 6.469 2.906 6.469 6.516c0 1.594-0.563 3.094-1.547 4.219l0.281 0.281h0.797z"/>
    </symbol>
    <symbol id="arrow_back" viewBox="0 0 24 24">
      <path d="M20.016 11.016v1.969h-12.188l5.578 5.625-1.406 1.406-8.016-8.016 8.016-8.016 1.406 1.406-5.578 5.625h12.188z"/>
    </symbol>
    <symbol id="keyboard_arrow_up" viewBox="0 0 24 24">
      <path d="M7.406 15.422l-1.406-1.406 6-6 6 6-1.406 1.406-4.594-4.594z"/>
    </symbol>
    <symbol id="keyboard_arrow_down" viewBox="0 0 24 24">
      <path d="M7.406 7.828l4.594 4.594 4.594-4.594 1.406 1.406-6 6-6-6z"/>
    </symbol>
    <symbol id="keyboard_arrow_up_down" viewBox="0 0 24 24">
      <path d="M7.406 15.422l-1.406-1.406 6-6 6 6-1.406 1.406-4.594-4.594z" transform="translate(0 -5.6)"/>
      <path d="M7.406 7.828l4.594 4.594 4.594-4.594 1.406 1.406-6 6-6-6z" transform="translate(0 5.6)"/>
    </symbol>
    <symbol id="keyboard_arrow_left" viewBox="0 0 24 24">
      <path d="M15.422 16.078l-1.406 1.406-6-6 6-6 1.406 1.406-4.594 4.594z"/>
    </symbol>
    <symbol id="keyboard_arrow_right" viewBox="0 0 24 24">
      <path d="M8.578 16.359l4.594-4.594-4.594-4.594 1.406-1.406 6 6-6 6z"/>
    </symbol>
    <symbol id="unfold_more" viewBox="0 0 24 24">
      <path d="M12 18.188l3.188-3.188 1.406 1.406-4.594 4.594-4.594-4.594 1.406-1.406zM12 5.813l-3.188 3.188-1.406-1.406 4.594-4.594 4.594 4.594-1.406 1.406z"/>
    </symbol>
    <symbol id="tune" viewBox="0 0 24 24">
      <path d="M15 9v-6h2.016v2.016h3.984v1.969h-3.984v2.016h-2.016zM21 12.984h-9.984v-1.969h9.984v1.969zM6.984 9h2.016v6h-2.016v-2.016h-3.984v-1.969h3.984v-2.016zM12.984 21h-1.969v-6h1.969v2.016h8.016v1.969h-8.016v2.016zM3 5.016h9.984v1.969h-9.984v-1.969zM3 17.016h6v1.969h-6v-1.969z"/>
    </symbol>
    <symbol id="line-chart" viewBox="0 0 32 28">
      <path d="M32 24v2h-32v-24h2v22h30zM30 4.5v6.797c0 0.438-0.531 0.672-0.859 0.344l-1.891-1.891-9.891 9.891c-0.203 0.203-0.516 0.203-0.719 0l-3.641-3.641-6.5 6.5-3-3 9.141-9.141c0.203-0.203 0.516-0.203 0.719 0l3.641 3.641 7.25-7.25-1.891-1.891c-0.328-0.328-0.094-0.859 0.344-0.859h6.797c0.281 0 0.5 0.219 0.5 0.5z"/>
    </symbol>
    <symbol id="area-chart" viewBox="0 0 32 28">
      <path d="M32 24v2h-32v-24h2v22h30zM26 8l4 14h-26v-9l7-9 9 9z"/>
    </symbol>
    <symbol id="column-chart" viewBox="0 0 32 28">
      <path d="M10 14v8h-4v-8h4zM16 6v16h-4v-16h4zM32 24v2h-32v-24h2v22h30zM22 10v12h-4v-12h4zM28 4v18h-4v-18h4z"/>
    </symbol>
    <symbol id="bar-chart" viewBox="0 0 32 28">
      <path d="M0,25.8C0,17.8,0,9.9,0,2c0.7,0,1.2,0,2,0C2,9.3,2,16.6,2,24c7.4,0,22.7,0,30,0c0,0.7,0,1.2,0,1.7C24,25.8,8.1,25.8,0,25.8z M16.8,8.3H4.2v-4h12.6V8.3z M29.4,14.3H4.2v-4h25.2V14.3z M23.1,20.3H4.2v-4h18.9V20.3z"/>
    </symbol>
    <symbol id="pie-chart" viewBox="0 0 27 28">
      <path d="M12 13.906l8.531 8.531c-2.172 2.203-5.203 3.563-8.531 3.563-6.625 0-12-5.375-12-12s5.375-12 12-12v11.906zM14.922 14h12.078c0 3.328-1.359 6.359-3.563 8.531zM26 12h-12v-12c6.625 0 12 5.375 12 12z"/>
    </symbol>
    <symbol id="lock_outline" viewBox="0 0 24 24">
      <path d="M18 20.016v-10.031h-12v10.031h12zM8.906 6v2.016h6.188v-2.016c0-1.688-1.406-3.094-3.094-3.094s-3.094 1.406-3.094 3.094zM18 8.016c1.078 0 2.016 0.891 2.016 1.969v10.031c0 1.078-0.938 1.969-2.016 1.969h-12c-1.078 0-2.016-0.891-2.016-1.969v-10.031c0-1.078 0.938-1.969 2.016-1.969h0.984v-2.016c0-2.766 2.25-5.016 5.016-5.016s5.016 2.25 5.016 5.016v2.016h0.984zM12 17.016c-1.078 0-2.016-0.938-2.016-2.016s0.938-2.016 2.016-2.016 2.016 0.938 2.016 2.016-0.938 2.016-2.016 2.016z"/>
    </symbol>
    <symbol id="lock_open" viewBox="0 0 24 24">
      <path d="M18 20.016v-10.031h-12v10.031h12zM18 8.016c1.078 0 2.016 0.891 2.016 1.969v10.031c0 1.078-0.938 1.969-2.016 1.969h-12c-1.078 0-2.016-0.891-2.016-1.969v-10.031c0-1.078 0.938-1.969 2.016-1.969h9.094v-2.016c0-1.688-1.406-3.094-3.094-3.094s-3.094 1.406-3.094 3.094h-1.922c0-2.766 2.25-5.016 5.016-5.016s5.016 2.25 5.016 5.016v2.016h0.984zM12 17.016c-1.078 0-2.016-0.938-2.016-2.016s0.938-2.016 2.016-2.016 2.016 0.938 2.016 2.016-0.938 2.016-2.016 2.016z"/>
    </symbol>
    <symbol id="lock" viewBox="0 0 24 24">
      <path d="M15.094 8.016v-2.016c0-1.688-1.406-3.094-3.094-3.094s-3.094 1.406-3.094 3.094v2.016h6.188zM12 17.016c1.078 0 2.016-0.938 2.016-2.016s-0.938-2.016-2.016-2.016-2.016 0.938-2.016 2.016 0.938 2.016 2.016 2.016zM18 8.016c1.078 0 2.016 0.891 2.016 1.969v10.031c0 1.078-0.938 1.969-2.016 1.969h-12c-1.078 0-2.016-0.891-2.016-1.969v-10.031c0-1.078 0.938-1.969 2.016-1.969h0.984v-2.016c0-2.766 2.25-5.016 5.016-5.016s5.016 2.25 5.016 5.016v2.016h0.984z"/>
    </symbol>
    <symbol id="lock_secure" viewBox="0 0 24 24">
      <path d="M21.9,4.1c-3.3-0.9-6.6-2.3-9.6-4.1c-0.2-0.1-0.4-0.1-0.5,0C8.7,1.9,5.5,3.2,2.1,4.1C1.9,4.2,1.8,4.4,1.8,4.6v5.2 c0,5.3,2.5,8.8,4.5,10.8C8.5,22.8,11.1,24,12,24c0.9,0,3.5-1.2,5.7-3.4c2.1-2,4.5-5.5,4.5-10.8V4.6C22.2,4.4,22.1,4.2,21.9,4.1z M21.2,9.8c0,5-2.3,8.2-4.2,10.1C14.8,22,12.5,23,12,23c-0.5,0-2.8-0.9-5-3.1C5.1,18,2.8,14.8,2.8,9.8V5C6,4.1,9,2.8,12,1.1 c2.9,1.7,6.1,3,9.2,3.9V9.8z M9.5,10.5v0.7H9.4c-0.2,0-0.4,0.2-0.4,0.6v3.7c0,0.3,0.2,0.6,0.4,0.6h5.3c0.2,0,0.4-0.3,0.4-0.6v-3.7 c0-0.3-0.2-0.6-0.4-0.6h-0.2v-0.7c0-1.3-1.1-2.5-2.4-2.5c0,0-0.1,0-0.1,0C10.6,8,9.5,9.2,9.5,10.5z M12.5,13.6v1.1 c0,0.1-0.1,0.2-0.2,0.2h-0.5c-0.1,0-0.2-0.1-0.2-0.2v-1.1c-0.1-0.1-0.2-0.3-0.2-0.5c0-0.4,0.3-0.7,0.6-0.7c0,0,0.1,0,0.1,0 c0.3,0,0.6,0.3,0.6,0.7C12.7,13.3,12.6,13.5,12.5,13.6z M13.5,10.5v0.7h-1.4h-0.1h-1.4v-0.7C10.5,9.7,11.2,9,12,9 C12.8,9,13.5,9.7,13.5,10.5z"/>
    </symbol>
    <symbol id="lock_unsecure" viewBox="0 0 24 24">
      <path d="M21.9,4.1c-3.3-0.9-6.6-2.3-9.6-4.1c-0.2-0.1-0.4-0.1-0.5,0C8.7,1.9,5.5,3.2,2.1,4.1C1.9,4.2,1.8,4.4,1.8,4.6v5.2 c0,5.3,2.5,8.8,4.5,10.8C8.5,22.8,11.1,24,12,24s3.5-1.2,5.7-3.4c2.1-2,4.5-5.5,4.5-10.8V4.6C22.2,4.4,22.1,4.2,21.9,4.1z M21.2,9.8 c0,5-2.3,8.2-4.2,10.1C14.8,22,12.5,23,12,23s-2.8-0.9-5-3.1C5.1,18,2.8,14.8,2.8,9.8V5C6,4.1,9,2.8,12,1.1c2.9,1.7,6.1,3,9.2,3.9 V9.8z M16.5,15.8c0.2,0.2,0.2,0.5,0,0.7c-0.1,0.1-0.2,0.1-0.4,0.1s-0.3,0-0.4-0.1L12,12.7l-3.8,3.8c-0.1,0.1-0.2,0.1-0.4,0.1 s-0.3,0-0.4-0.1c-0.2-0.2-0.2-0.5,0-0.7l3.8-3.8L7.5,8.2C7.3,8,7.3,7.7,7.5,7.5s0.5-0.2,0.7,0l3.8,3.8l3.8-3.8 c0.2-0.2,0.5-0.2,0.7,0s0.2,0.5,0,0.7L12.7,12L16.5,15.8z"/>
    </symbol>
    <symbol id="filter" viewBox="0 0 22 28">
      <path d="M21.922 4.609c0.156 0.375 0.078 0.812-0.219 1.094l-7.703 7.703v11.594c0 0.406-0.25 0.766-0.609 0.922-0.125 0.047-0.266 0.078-0.391 0.078-0.266 0-0.516-0.094-0.703-0.297l-4-4c-0.187-0.187-0.297-0.438-0.297-0.703v-7.594l-7.703-7.703c-0.297-0.281-0.375-0.719-0.219-1.094 0.156-0.359 0.516-0.609 0.922-0.609h20c0.406 0 0.766 0.25 0.922 0.609z"/>
    </symbol>
    <symbol id="announcement" viewBox="0 0 24 24">
      <path d="M12.984 15v-2.016h-1.969v2.016h1.969zM12.984 11.016v-6h-1.969v6h1.969zM20.016 2.016c1.078 0 1.969 0.891 1.969 1.969v12c0 1.078-0.891 2.016-1.969 2.016h-14.016l-3.984 3.984v-18c0-1.078 0.891-1.969 1.969-1.969h16.031z"/>
    </symbol>
    <symbol id="check" viewBox="0 0 24 24">
      <path d="M9 16.172l10.594-10.594 1.406 1.406-12 12-5.578-5.578 1.406-1.406z"/>
    </symbol>
    <symbol id="cloud_download" viewBox="0 0 24 24">
      <path d="M17.016 12.984h-3v-3.984h-4.031v3.984h-3l5.016 5.016zM19.359 10.031c2.578 0.188 4.641 2.344 4.641 4.969 0 2.766-2.25 5.016-5.016 5.016h-12.984c-3.328 0-6-2.672-6-6 0-3.094 2.344-5.625 5.344-5.953 1.266-2.391 3.75-4.078 6.656-4.078 3.656 0 6.656 2.578 7.359 6.047z"/>
    </symbol>
    <symbol id="warning" viewBox="0 0 24 24">
      <path d="M12.984 14.016v-4.031h-1.969v4.031h1.969zM12.984 18v-2.016h-1.969v2.016h1.969zM0.984 21l11.016-18.984 11.016 18.984h-22.031z"/>
    </symbol>
    <symbol id="warning_outline" viewBox="0 0 32 32">
      <path d="M16 3c-3.472 0-6.737 1.352-9.192 3.808s-3.808 5.72-3.808 9.192c0 3.472 1.352 6.737 3.808 9.192s5.72 3.808 9.192 3.808c3.472 0 6.737-1.352 9.192-3.808s3.808-5.72 3.808-9.192c0-3.472-1.352-6.737-3.808-9.192s-5.72-3.808-9.192-3.808zM16 0v0c8.837 0 16 7.163 16 16s-7.163 16-16 16c-8.837 0-16-7.163-16-16s7.163-16 16-16zM14 22h4v4h-4zM14 6h4v12h-4z"/>
    </symbol>
    <symbol id="trash-o" viewBox="0 0 22 28">
      <path d="M8 11.5v9c0 0.281-0.219 0.5-0.5 0.5h-1c-0.281 0-0.5-0.219-0.5-0.5v-9c0-0.281 0.219-0.5 0.5-0.5h1c0.281 0 0.5 0.219 0.5 0.5zM12 11.5v9c0 0.281-0.219 0.5-0.5 0.5h-1c-0.281 0-0.5-0.219-0.5-0.5v-9c0-0.281 0.219-0.5 0.5-0.5h1c0.281 0 0.5 0.219 0.5 0.5zM16 11.5v9c0 0.281-0.219 0.5-0.5 0.5h-1c-0.281 0-0.5-0.219-0.5-0.5v-9c0-0.281 0.219-0.5 0.5-0.5h1c0.281 0 0.5 0.219 0.5 0.5zM18 22.813v-14.812h-14v14.812c0 0.75 0.422 1.188 0.5 1.188h13c0.078 0 0.5-0.438 0.5-1.188zM7.5 6h7l-0.75-1.828c-0.047-0.063-0.187-0.156-0.266-0.172h-4.953c-0.094 0.016-0.219 0.109-0.266 0.172zM22 6.5v1c0 0.281-0.219 0.5-0.5 0.5h-1.5v14.812c0 1.719-1.125 3.187-2.5 3.187h-13c-1.375 0-2.5-1.406-2.5-3.125v-14.875h-1.5c-0.281 0-0.5-0.219-0.5-0.5v-1c0-0.281 0.219-0.5 0.5-0.5h4.828l1.094-2.609c0.313-0.766 1.25-1.391 2.078-1.391h5c0.828 0 1.766 0.625 2.078 1.391l1.094 2.609h4.828c0.281 0 0.5 0.219 0.5 0.5z"/>
    </symbol>
    <symbol id="keyboard_backspace" viewBox="0 0 24 24">
      <path d="M21 11.016v1.969h-14.156l3.563 3.609-1.406 1.406-6-6 6-6 1.406 1.406-3.563 3.609h14.156z"/>
    </symbol>
    <symbol id="dashboard" viewBox="0 0 24 24">
      <path d="M12.984 3h8.016v6h-8.016v-6zM12.984 21v-9.984h8.016v9.984h-8.016zM3 21v-6h8.016v6h-8.016zM3 12.984v-9.984h8.016v9.984h-8.016z"/>
    </symbol>
    <symbol id="do_not_disturb_alt" viewBox="0 0 24 24">
      <path d="M12 20.016c4.406 0 8.016-3.609 8.016-8.016 0-1.781-0.656-3.516-1.734-4.922l-11.203 11.203c1.406 1.078 3.141 1.734 4.922 1.734zM3.984 12c0 1.781 0.656 3.516 1.734 4.922l11.203-11.203c-1.406-1.078-3.141-1.734-4.922-1.734-4.406 0-8.016 3.609-8.016 8.016zM12 2.016c5.484 0 9.984 4.5 9.984 9.984s-4.5 9.984-9.984 9.984-9.984-4.5-9.984-9.984 4.5-9.984 9.984-9.984z"/>
    </symbol>
    <symbol id="data" viewBox="0 0 32 32">
      <path d="M16 0c-6.744 0-14 2.033-14 6.5v19c0 4.465 7.256 6.5 14 6.5s14-2.035 14-6.5v-19c0-4.467-7.258-6.5-14-6.5zM28 25.5c0 2.484-5.373 4.5-12 4.5-6.628 0-12-2.016-12-4.5v-3.736c2.066 2.129 7.050 3.236 12 3.236s9.934-1.107 12-3.236v3.736zM28 19.5h-0.004c0 0.010 0.004 0.021 0.004 0.031 0 2.469-5.373 4.469-12 4.469s-12-2-12-4.469c0-0.010 0.004-0.021 0.004-0.031h-0.004v-3.736c2.066 2.129 7.050 3.236 12 3.236s9.934-1.107 12-3.236v3.736zM28 13.5h-0.004c0 0.010 0.004 0.021 0.004 0.031 0 2.469-5.373 4.469-12 4.469s-12-2-12-4.469c0-0.010 0.004-0.021 0.004-0.031h-0.004v-3.436c2.621 1.997 7.425 2.936 12 2.936s9.379-0.939 12-2.936v3.436zM16 11c-6.628 0-12-2.016-12-4.5 0-2.486 5.372-4.5 12-4.5 6.627 0 12 2.014 12 4.5 0 2.484-5.373 4.5-12 4.5zM24 26c0-0.552 0.448-1 1-1s1 0.448 1 1c0 0.552-0.448 1-1 1s-1-0.448-1-1zM24 20c0-0.552 0.448-1 1-1s1 0.448 1 1c0 0.552-0.448 1-1 1s-1-0.448-1-1zM24 14c0-0.552 0.448-1 1-1s1 0.448 1 1c0 0.552-0.448 1-1 1s-1-0.448-1-1z"/>
    </symbol>
    <symbol id="table" viewBox="0 0 26 28">
      <path d="M8 21.5v-3c0-0.281-0.219-0.5-0.5-0.5h-5c-0.281 0-0.5 0.219-0.5 0.5v3c0 0.281 0.219 0.5 0.5 0.5h5c0.281 0 0.5-0.219 0.5-0.5zM8 15.5v-3c0-0.281-0.219-0.5-0.5-0.5h-5c-0.281 0-0.5 0.219-0.5 0.5v3c0 0.281 0.219 0.5 0.5 0.5h5c0.281 0 0.5-0.219 0.5-0.5zM16 21.5v-3c0-0.281-0.219-0.5-0.5-0.5h-5c-0.281 0-0.5 0.219-0.5 0.5v3c0 0.281 0.219 0.5 0.5 0.5h5c0.281 0 0.5-0.219 0.5-0.5zM8 9.5v-3c0-0.281-0.219-0.5-0.5-0.5h-5c-0.281 0-0.5 0.219-0.5 0.5v3c0 0.281 0.219 0.5 0.5 0.5h5c0.281 0 0.5-0.219 0.5-0.5zM16 15.5v-3c0-0.281-0.219-0.5-0.5-0.5h-5c-0.281 0-0.5 0.219-0.5 0.5v3c0 0.281 0.219 0.5 0.5 0.5h5c0.281 0 0.5-0.219 0.5-0.5zM24 21.5v-3c0-0.281-0.219-0.5-0.5-0.5h-5c-0.281 0-0.5 0.219-0.5 0.5v3c0 0.281 0.219 0.5 0.5 0.5h5c0.281 0 0.5-0.219 0.5-0.5zM16 9.5v-3c0-0.281-0.219-0.5-0.5-0.5h-5c-0.281 0-0.5 0.219-0.5 0.5v3c0 0.281 0.219 0.5 0.5 0.5h5c0.281 0 0.5-0.219 0.5-0.5zM24 15.5v-3c0-0.281-0.219-0.5-0.5-0.5h-5c-0.281 0-0.5 0.219-0.5 0.5v3c0 0.281 0.219 0.5 0.5 0.5h5c0.281 0 0.5-0.219 0.5-0.5zM24 9.5v-3c0-0.281-0.219-0.5-0.5-0.5h-5c-0.281 0-0.5 0.219-0.5 0.5v3c0 0.281 0.219 0.5 0.5 0.5h5c0.281 0 0.5-0.219 0.5-0.5zM26 4.5v17c0 1.375-1.125 2.5-2.5 2.5h-21c-1.375 0-2.5-1.125-2.5-2.5v-17c0-1.375 1.125-2.5 2.5-2.5h21c1.375 0 2.5 1.125 2.5 2.5z"/>
    </symbol>
    <symbol id="align_center" viewBox="0 0 24 24">
      <path d="M3 3h18v2.016h-18v-2.016zM6.984 6.984h10.031v2.016h-10.031v-2.016zM3 12.984v-1.969h18v1.969h-18zM3 21v-2.016h18v2.016h-18zM6.984 15h10.031v2.016h-10.031v-2.016z"/>
    </symbol>
    <symbol id="align_left" viewBox="0 0 24 24">
      <path d="M3 3h18v2.016h-18v-2.016zM3 21v-2.016h18v2.016h-18zM3 12.984v-1.969h18v1.969h-18zM15 6.984v2.016h-12v-2.016h12zM15 15v2.016h-12v-2.016h12z"/>
    </symbol>
    <symbol id="align_right" viewBox="0 0 24 24">
      <path d="M3 3h18v2.016h-18v-2.016zM9 9v-2.016h12v2.016h-12zM3 12.984v-1.969h18v1.969h-18zM9 17.016v-2.016h12v2.016h-12zM3 21v-2.016h18v2.016h-18z"/>
    </symbol>
    <symbol id="bold" viewBox="0 0 24 24">
      <path d="M13.5 15.516c0.844 0 1.5-0.656 1.5-1.5s-0.656-1.5-1.5-1.5h-3.516v3h3.516zM9.984 6.516v3h3c0.844 0 1.5-0.656 1.5-1.5s-0.656-1.5-1.5-1.5h-3zM15.609 10.781c1.313 0.609 2.156 1.922 2.156 3.422 0 2.109-1.594 3.797-3.703 3.797h-7.078v-14.016h6.281c2.25 0 3.984 1.781 3.984 4.031 0 1.031-0.656 2.109-1.641 2.766z"/>
    </symbol>
    <symbol id="italic" viewBox="0 0 24 24">
      <path d="M9.984 3.984h8.016v3h-2.813l-3.375 8.016h2.203v3h-8.016v-3h2.813l3.375-8.016h-2.203v-3z"/>
    </symbol>
    <symbol id="underlined" viewBox="0 0 24 24">
      <path d="M5.016 18.984h13.969v2.016h-13.969v-2.016zM12 17.016c-3.328 0-6-2.672-6-6v-8.016h2.484v8.016c0 1.922 1.594 3.469 3.516 3.469s3.516-1.547 3.516-3.469v-8.016h2.484v8.016c0 3.328-2.672 6-6 6z"/>
    </symbol>
    <symbol id="border_color" viewBox="0 0 24 24">
      <path d="M0 20.016h24v3.984h-24v-3.984zM20.719 4.031l-1.969 1.969-3.75-3.75 1.969-1.969c0.375-0.375 1.031-0.375 1.406 0l2.344 2.344c0.375 0.375 0.375 1.031 0 1.406zM17.766 6.984l-10.031 10.031h-3.75v-3.75l10.031-10.031z"/>
    </symbol>
    <symbol id="text_color" viewBox="0 0 24 24">
      <path d="M9.609 12h4.781l-2.391-6.328zM11.016 3h1.969l5.484 14.016h-2.25l-1.078-3h-6.281l-1.125 3h-2.25zM0 20.016h24v3.984h-24v-3.984z"/>
    </symbol>
    <symbol id="decimal" viewBox="0 0 12.5 16">
      <path d="M4.2,12.7a1.5,1.5,0,0,1,.4,1.1,2.6,2.6,0,0,1-.7,1.6,2.4,2.4,0,0,1-1.7.6,2.5,2.5,0,0,1-1.5-.5A2.6,2.6,0,0,1,0,14H0l1.1-.2v.2a1.9,1.9,0,0,0,.5.9l.6.2a1.4,1.4,0,0,0,.9-.3,1.4,1.4,0,0,0,.3-.9.9.9,0,0,0-.3-.7.8.8,0,0,0-.8-.3H1.5l.2-1.1H2l.8-.2a.9.9,0,0,0,.3-.7,1.4,1.4,0,0,0-.2-.6l-.7-.2-.6.2a1.5,1.5,0,0,0-.4.8v.2L.1,11.1v-.2A1.9,1.9,0,0,1,.8,9.6a1.9,1.9,0,0,1,1.4-.5l1,.2A1.9,1.9,0,0,1,4,10a1.5,1.5,0,0,1,0,1.8l-.4.4A1,1,0,0,1,4.2,12.7Zm7.1.7h.9v1.1h-.9V16H10.2V14.5H7.4v-1h0l3-4.3h.9Zm-1.1-2.2L8.7,13.4h1.5ZM1.1,2.3,1.6,2V6.8H2.7V0H1.9c-.1.3-.4.5-.7.8a4.1,4.1,0,0,1-1.1.7H0V2.8H.2ZM9.2,5.7h.1l.9-.8,1.3-1.2.5-.8a3.1,3.1,0,0,0,.2-.8A1.7,1.7,0,0,0,11.6.6,2.1,2.1,0,0,0,10,0,2.8,2.8,0,0,0,8.4.5,2,2,0,0,0,7.8,2v.2H8.9V2.1a1.1,1.1,0,0,1,.3-.8,1.2,1.2,0,0,1,1.6,0,1.4,1.4,0,0,1,.2.6,1.6,1.6,0,0,1-.3.9A6.1,6.1,0,0,1,9.3,4.1a9.3,9.3,0,0,0-1,1,2.4,2.4,0,0,0-.6.9,1.3,1.3,0,0,0-.1.6v.2h4.6V5.7Z"/>
    </symbol>
    <symbol id="date" viewBox="0 0 16 16">
      <path d="M14.2,1.6h-.9V0H11.6V1.6H4.4V0H2.7V1.6H1.8A1.7,1.7,0,0,0,0,3.2V14.4A1.7,1.7,0,0,0,1.8,16H14.2A1.7,1.7,0,0,0,16,14.4V3.2A1.7,1.7,0,0,0,14.2,1.6Zm0,12.8H1.8V5.6H14.2v8.8ZM2.7,6.9H6.1V10H2.7Z"/>
    </symbol>
    <symbol id="date_time" viewBox="0 0 16 16">
      <path d="M16,11a4.9,4.9,0,0,0-1.8-3.8V2.8a1.5,1.5,0,0,0-1.5-1.4h-.8V0H10.3V1.4H4V0H2.4V1.4H1.6A1.6,1.6,0,0,0,0,2.8v10a1.6,1.6,0,0,0,1.6,1.4H7.3A4.6,4.6,0,0,0,11.1,16,4.9,4.9,0,0,0,16,11.1ZM6.5,12.8H1.6V5H12.7V6.1H11.1a4.9,4.9,0,0,0-5,5A5.8,5.8,0,0,0,6.5,12.8Zm8.4-1.1a3.8,3.8,0,0,1-7.5,0,3.7,3.7,0,0,1,3.1-4.4h1.2A3.9,3.9,0,0,1,14.9,11.7ZM2.6,6h3V8.5h-3Zm10.1,7.5H12l-1.5-1.6h-.1V9.4a.5.5,0,0,1,.5-.5.6.6,0,0,1,.5.5v2l1.3,1.4A.5.5,0,0,1,12.7,13.5Z"/>
    </symbol>
    <symbol id="classifier" viewBox="0 0 16 15.5">
      <path d="M4,10.2H1.3A1.3,1.3,0,0,0,0,11.5v2.7a1.3,1.3,0,0,0,1.3,1.3H4a1.3,1.3,0,0,0,1.3-1.3V11.5A1.3,1.3,0,0,0,4,10.2Zm.2,4.1-.2.2H1.3l-.2-.2V11.6l.2-.2H4l.2.2ZM7.2.9,10,2.8l-2.8,2V3.4h-4v6H2.1V2.3H7.2ZM13.3,0A2.7,2.7,0,1,0,16,2.7,2.7,2.7,0,0,0,13.3,0Zm0,4.3a1.6,1.6,0,0,1-1.6-1.6,1.6,1.6,0,0,1,3.2,0A1.6,1.6,0,0,1,13.3,4.3Z"/>
    </symbol>
    <symbol id="boolean" viewBox="0 0 16 16">
      <path d="M6.9,11.8,3,7.9,4.5,6.4,6.9,8.8l5.1-5,1.4,1.4ZM13.2,16H2.8A2.9,2.9,0,0,1,0,13.2V2.8A2.9,2.9,0,0,1,2.8,0H13.2A2.9,2.9,0,0,1,16,2.8V13.2A2.9,2.9,0,0,1,13.2,16ZM2.8,1.1A1.8,1.8,0,0,0,1.1,2.8V13.2a1.8,1.8,0,0,0,1.7,1.7H13.2a1.8,1.8,0,0,0,1.7-1.7V2.8a1.8,1.8,0,0,0-1.7-1.7Z"/>
    </symbol>
    <symbol id="string" viewBox="0 0 50 50">
      <polygon points="50 44 39.9 38 39.9 41.8 10.1 41.8 10.1 38 0 44 10.1 50 10.1 46.2 39.9 46.2 39.9 50 50 44"/><path d="M39.8 0H10.2A1.7 1.7 0 0 0 8.5 1.8V7.3a1.7 1.7 0 0 0 1.7 1.8h1.4a1.7 1.7 0 0 0 1.7-1.8V5h9.2V30h-4a1.7 1.7 0 0 0-1.7 1.8v1.5A1.7 1.7 0 0 0 18.6 35H31.4a1.7 1.7 0 0 0 1.7-1.7V31.8A1.7 1.7 0 0 0 31.4 30h-4V5h9.2V7.5a1.7 1.7 0 0 0 1.7 1.8h1.4a1.7 1.7 0 0 0 1.7-1.7V1.8A1.7 1.7 0 0 0 39.8 0Z"/>
    </symbol>
    <symbol id="multiselect" viewBox="0 0 16 14.2">
      <path d="M3.1,6.4,0,3.3,1.2,2.1,3.1,4,7.2,0,8.4,1.1Zm0,7.8L0,11.1,1.2,9.9l1.9,2L7.2,7.8,8.4,9ZM16,4H8.3V5H16Zm0,7.8H8.3v1H16Z"/>
    </symbol>
    <symbol id="angle-double-up" viewBox="0 0 18 28">
      <path d="M16.797 20.5c0 0.125-0.063 0.266-0.156 0.359l-0.781 0.781c-0.094 0.094-0.219 0.156-0.359 0.156-0.125 0-0.266-0.063-0.359-0.156l-6.141-6.141-6.141 6.141c-0.094 0.094-0.234 0.156-0.359 0.156s-0.266-0.063-0.359-0.156l-0.781-0.781c-0.094-0.094-0.156-0.234-0.156-0.359s0.063-0.266 0.156-0.359l7.281-7.281c0.094-0.094 0.234-0.156 0.359-0.156s0.266 0.063 0.359 0.156l7.281 7.281c0.094 0.094 0.156 0.234 0.156 0.359zM16.797 14.5c0 0.125-0.063 0.266-0.156 0.359l-0.781 0.781c-0.094 0.094-0.219 0.156-0.359 0.156-0.125 0-0.266-0.063-0.359-0.156l-6.141-6.141-6.141 6.141c-0.094 0.094-0.234 0.156-0.359 0.156s-0.266-0.063-0.359-0.156l-0.781-0.781c-0.094-0.094-0.156-0.234-0.156-0.359s0.063-0.266 0.156-0.359l7.281-7.281c0.094-0.094 0.234-0.156 0.359-0.156s0.266 0.063 0.359 0.156l7.281 7.281c0.094 0.094 0.156 0.234 0.156 0.359z"/>
    </symbol>
    <symbol id="angle-double-down" viewBox="0 0 18 28">
      <path d="M16.797 13.5c0 0.125-0.063 0.266-0.156 0.359l-7.281 7.281c-0.094 0.094-0.234 0.156-0.359 0.156s-0.266-0.063-0.359-0.156l-7.281-7.281c-0.094-0.094-0.156-0.234-0.156-0.359s0.063-0.266 0.156-0.359l0.781-0.781c0.094-0.094 0.219-0.156 0.359-0.156 0.125 0 0.266 0.063 0.359 0.156l6.141 6.141 6.141-6.141c0.094-0.094 0.234-0.156 0.359-0.156s0.266 0.063 0.359 0.156l0.781 0.781c0.094 0.094 0.156 0.234 0.156 0.359zM16.797 7.5c0 0.125-0.063 0.266-0.156 0.359l-7.281 7.281c-0.094 0.094-0.234 0.156-0.359 0.156s-0.266-0.063-0.359-0.156l-7.281-7.281c-0.094-0.094-0.156-0.234-0.156-0.359s0.063-0.266 0.156-0.359l0.781-0.781c0.094-0.094 0.219-0.156 0.359-0.156 0.125 0 0.266 0.063 0.359 0.156l6.141 6.141 6.141-6.141c0.094-0.094 0.234-0.156 0.359-0.156s0.266 0.063 0.359 0.156l0.781 0.781c0.094 0.094 0.156 0.234 0.156 0.359z"/>
    </symbol>
    <symbol id="arrow_down" viewBox="0 0 24 24">
      <path d="M6.984 9.984h10.031l-5.016 5.016z"/>
    </symbol>
    <symbol id="dock" viewBox="0 0 24 24">
      <path d="M15.984 15v-9.984h-7.969v9.984h7.969zM15.984 1.031c1.078 0 2.016 0.891 2.016 1.969v14.016c0 1.078-0.938 1.969-2.016 1.969h-7.969c-1.078 0-2.016-0.891-2.016-1.969v-14.016c0-1.078 0.938-2.016 2.016-2.016zM8.016 23.016v-2.016h7.969v2.016h-7.969z"/>
    </symbol>
    <symbol id="cloud_off" viewBox="0 0 24 24">
      <path d="M7.734 9.984h-1.734c-2.203 0-3.984 1.828-3.984 4.031s1.781 3.984 3.984 3.984h9.75zM3 5.25l1.266-1.266 16.734 16.734-1.266 1.266-2.016-1.969h-11.719c-3.328 0-6-2.672-6-6 0-3.234 2.578-5.859 5.766-6zM19.359 10.031c2.578 0.188 4.641 2.344 4.641 4.969 0 1.688-0.844 3.188-2.109 4.078l-1.453-1.453c0.938-0.516 1.547-1.5 1.547-2.625 0-1.641-1.359-3-3-3h-1.5v-0.516c0-3.047-2.438-5.484-5.484-5.484-0.938 0-1.781 0.188-2.531 0.609l-1.5-1.453c1.172-0.75 2.531-1.172 4.031-1.172 3.656 0 6.656 2.578 7.359 6.047z"/>
    </symbol>
    <symbol id="cloud_queue" viewBox="0 0 24 24">
      <path d="M18.984 18c1.641 0 3-1.359 3-3s-1.359-3-3-3h-1.5v-0.516c0-3.047-2.438-5.484-5.484-5.484-2.531 0-4.641 1.688-5.297 3.984h-0.703c-2.203 0-3.984 1.828-3.984 4.031s1.781 3.984 3.984 3.984h12.984zM19.359 10.031c2.578 0.188 4.641 2.344 4.641 4.969 0 2.766-2.25 5.016-5.016 5.016h-12.984c-3.328 0-6-2.672-6-6 0-3.094 2.344-5.625 5.344-5.953 1.266-2.391 3.75-4.078 6.656-4.078 3.656 0 6.656 2.578 7.359 6.047z"/>
    </symbol>
    <symbol id="radio_button_checked" viewBox="0 0 24 24">
      <path d="M12 20.016c4.406 0 8.016-3.609 8.016-8.016s-3.609-8.016-8.016-8.016-8.016 3.609-8.016 8.016 3.609 8.016 8.016 8.016zM12 2.016c5.531 0 9.984 4.453 9.984 9.984s-4.453 9.984-9.984 9.984-9.984-4.453-9.984-9.984 4.453-9.984 9.984-9.984zM12 6.984c2.766 0 5.016 2.25 5.016 5.016s-2.25 5.016-5.016 5.016-5.016-2.25-5.016-5.016 2.25-5.016 5.016-5.016z"/>
    </symbol>
    <symbol id="info_outline" viewBox="0 0 24 24">
      <path d="M11.016 9v-2.016h1.969v2.016h-1.969zM12 20.016c4.406 0 8.016-3.609 8.016-8.016s-3.609-8.016-8.016-8.016-8.016 3.609-8.016 8.016 3.609 8.016 8.016 8.016zM12 2.016c5.531 0 9.984 4.453 9.984 9.984s-4.453 9.984-9.984 9.984-9.984-4.453-9.984-9.984 4.453-9.984 9.984-9.984zM11.016 17.016v-6h1.969v6h-1.969z"/>
    </symbol>
    <symbol id="page_management" viewBox="0 0 24 24">
      <path d="M6.7,10.8c-0.3,0-0.5-0.2-0.5-0.5s0.2-0.5,0.5-0.5h3c0.3,0,0.5,0.2,0.5,0.5s-0.2,0.5-0.5,0.5H6.7z M12.8,17.8 c0,0.9-0.7,1.7-1.7,1.7s-1.7-0.7-1.7-1.7s0.7-1.7,1.7-1.7S12.8,16.9,12.8,17.8z M12,17.8c0-0.5-0.4-0.8-0.8-0.8 c-0.5,0-0.8,0.4-0.8,0.8s0.4,0.8,0.8,0.8C11.6,18.6,12,18.3,12,17.8z M15.1,20.4c0,0.3-0.1,0.6-0.4,0.9c-0.2,0.2-0.6,0.4-0.9,0.4 c-0.3,0-0.6-0.1-0.9-0.4l0,0c-0.1-0.1-0.2-0.1-0.3-0.1c-0.1,0-0.2,0.1-0.2,0.2v0.1c0,0.7-0.6,1.2-1.2,1.2c-0.7,0-1.2-0.6-1.2-1.2 c0-0.1-0.1-0.2-0.2-0.3c-0.1,0-0.2,0-0.3,0.1l0,0c-0.2,0.2-0.6,0.4-0.9,0.4c-0.3,0-0.6-0.1-0.9-0.4c-0.2-0.2-0.4-0.6-0.4-0.9 s0.1-0.6,0.4-0.9l0,0c0.1-0.1,0.1-0.2,0.1-0.3c0-0.1-0.1-0.2-0.2-0.2H7.4c-0.7,0-1.2-0.6-1.2-1.2s0.6-1.2,1.2-1.2 c0.1,0,0.2-0.1,0.3-0.2c0-0.1,0-0.2-0.1-0.3l0,0c-0.2-0.2-0.4-0.6-0.4-0.9c0-0.3,0.1-0.6,0.4-0.9c0.2-0.2,0.6-0.4,0.9-0.4 c0.3,0,0.6,0.1,0.9,0.4l0,0c0.1,0.1,0.2,0.1,0.3,0.1c0,0,0.1,0,0.1,0c0.1,0,0.1-0.1,0.1-0.2v-0.1c0-0.7,0.6-1.2,1.2-1.2 c0.7,0,1.2,0.6,1.2,1.2v0c0,0.1,0.1,0.2,0.2,0.2c0.1,0,0.2,0,0.3-0.1l0,0c0.2-0.2,0.6-0.4,0.9-0.4c0.3,0,0.6,0.1,0.9,0.4 c0.2,0.2,0.4,0.6,0.4,0.9s-0.1,0.6-0.4,0.9l0,0c-0.1,0.1-0.1,0.2-0.1,0.3c0,0,0,0.1,0,0.1c0,0.1,0.1,0.1,0.2,0.1h0.1 c0.7,0,1.2,0.6,1.2,1.2s-0.6,1.2-1.2,1.2h0c-0.1,0-0.2,0.1-0.2,0.2c0,0.1,0,0.2,0,0.3l0,0C15,19.8,15.1,20.1,15.1,20.4z M14.2,20.4 c0-0.1,0-0.2-0.1-0.3l0,0c-0.3-0.3-0.4-0.8-0.2-1.2c0.2-0.4,0.6-0.7,1-0.7h0c0.2,0,0.4-0.2,0.4-0.4s-0.2-0.4-0.4-0.4h-0.1 c-0.4,0-0.8-0.3-1-0.7c0,0,0-0.1,0-0.1c-0.1-0.4,0-0.8,0.3-1.1l0,0c0.1-0.1,0.1-0.2,0.1-0.3s0-0.2-0.1-0.3c-0.1-0.1-0.2-0.1-0.3-0.1 s-0.2,0-0.3,0.1l0,0c-0.3,0.3-0.8,0.4-1.2,0.2c-0.4-0.2-0.7-0.6-0.7-1v0c0-0.2-0.2-0.4-0.4-0.4c-0.2,0-0.4,0.2-0.4,0.4v0.1 c0,0.4-0.3,0.8-0.7,1c0,0-0.1,0-0.1,0c-0.4,0.1-0.8,0-1.1-0.3l0,0c-0.1-0.1-0.2-0.1-0.3-0.1c-0.1,0-0.2,0-0.3,0.1 c-0.1,0.1-0.1,0.2-0.1,0.3s0,0.2,0.1,0.3l0,0c0.3,0.3,0.4,0.8,0.2,1.2c-0.2,0.4-0.6,0.7-1,0.7h0c-0.2,0-0.4,0.2-0.4,0.4 s0.2,0.4,0.4,0.4h0.1c0.4,0,0.8,0.3,1,0.7c0.2,0.4,0.1,0.9-0.2,1.2l0,0c-0.1,0.1-0.1,0.2-0.1,0.3s0,0.2,0.1,0.3 c0.1,0.1,0.2,0.1,0.3,0.1c0.1,0,0.2,0,0.3-0.1l0,0c0.3-0.3,0.8-0.4,1.2-0.2c0.4,0.2,0.7,0.6,0.7,1v0c0,0.2,0.2,0.4,0.4,0.4 c0.2,0,0.4-0.2,0.4-0.4v-0.1c0-0.4,0.3-0.8,0.7-1c0.4-0.2,0.9-0.1,1.2,0.2l0,0c0.1,0.1,0.2,0.1,0.3,0.1c0.1,0,0.2,0,0.3-0.1 C14.2,20.6,14.2,20.5,14.2,20.4z M21.3,9.9l0,8c0,1.3-1,2.3-2.2,2.4c-0.2,1.1-1.2,2-2.4,2h-1.1c-0.3,0-0.5-0.2-0.5-0.5 s0.2-0.5,0.5-0.5h1.1c0.8,0,1.5-0.7,1.5-1.5l0-9.7c0,0,0,0,0,0h-5c-1.4,0-2.5-1.1-2.5-2.5V2.3H7.8H7.2h-2c-0.4,0-0.8,0.2-1.1,0.4 C3.8,3,3.7,3.4,3.7,3.8l0.1,15.9c0,0.8,0.7,1.5,1.5,1.5h1.1c0.3,0,0.5,0.2,0.5,0.5s-0.2,0.5-0.5,0.5H5.3c-1.4,0-2.5-1.1-2.5-2.5 v-3.2L2.7,3.8c0-0.7,0.3-1.3,0.7-1.8c0.5-0.5,1.1-0.7,1.8-0.7l2,0c0,0,0,0,0,0h3.5c0.7,0,1.3,0.3,1.8,0.8l0.2,0.2h1.8 c0.7,0,1.4,0.3,1.9,0.9l4.3,5.1C21.1,8.7,21.3,9.3,21.3,9.9z M17.8,9.1C17.8,9.1,17.8,9.1,17.8,9.1l-6-6.3c0,0-0.1-0.1-0.1-0.1v4.9 c0,0.8,0.7,1.5,1.5,1.5H17.8z M20.3,9.9c0-0.4-0.1-0.7-0.4-1l-4.3-5.1c-0.3-0.3-0.7-0.5-1.1-0.5h-0.9l4.8,5.1 c0.4,0.5,0.7,1.1,0.7,1.7l0,9.2c0.7-0.1,1.2-0.7,1.2-1.4L20.3,9.9z"/>
    </symbol>
    <symbol id="diagram" viewBox="0 0 24 24">
      <path class="st0" d="M22.5,16h-1v-3c0-0.8-0.7-1.5-1.5-1.5h-7.5V7h3C16.3,7,17,6.3,17,5.5v-3C17,1.7,16.3,1,15.5,1h-7 C7.7,1,7,1.7,7,2.5v3C7,6.3,7.7,7,8.5,7h3v4.5H4c-0.8,0-1.5,0.7-1.5,1.5v3h-1C0.7,16,0,16.7,0,17.5v3C0,21.3,0.7,22,1.5,22h3 C5.3,22,6,21.3,6,20.5v-3C6,16.7,5.3,16,4.5,16h-1v-3c0-0.3,0.2-0.5,0.5-0.5h7.5V16h-1C9.7,16,9,16.7,9,17.5v3 c0,0.8,0.7,1.5,1.5,1.5h3c0.8,0,1.5-0.7,1.5-1.5v-3c0-0.8-0.7-1.5-1.5-1.5h-1v-3.5H20c0.3,0,0.5,0.2,0.5,0.5v3h-1 c-0.8,0-1.5,0.7-1.5,1.5v3c0,0.8,0.7,1.5,1.5,1.5h3c0.8,0,1.5-0.7,1.5-1.5v-3C24,16.7,23.3,16,22.5,16z M4.5,17 C4.8,17,5,17.2,5,17.5v3C5,20.8,4.8,21,4.5,21h-3C1.2,21,1,20.8,1,20.5v-3C1,17.2,1.2,17,1.5,17H4.5z M14,17.5v3 c0,0.3-0.2,0.5-0.5,0.5h-3c-0.3,0-0.5-0.2-0.5-0.5v-3c0-0.3,0.2-0.5,0.5-0.5h3C13.8,17,14,17.2,14,17.5z M8.5,6C8.2,6,8,5.8,8,5.5 v-3C8,2.2,8.2,2,8.5,2h7C15.8,2,16,2.2,16,2.5v3C16,5.8,15.8,6,15.5,6H8.5z M23,20.5c0,0.3-0.2,0.5-0.5,0.5h-3 c-0.3,0-0.5-0.2-0.5-0.5v-3c0-0.3,0.2-0.5,0.5-0.5h3c0.3,0,0.5,0.2,0.5,0.5V20.5z"/>
    </symbol>
    <symbol id="tree" viewBox="0 0 24 24">
      <path class="st0" d="M22.5,16.1h-6.9c-0.8,0-1.5,0.7-1.5,1.5v0.8h-0.8c-0.8,0-1.5-0.7-1.5-1.5v-2.2h3.6c0.8,0,1.5-0.7,1.5-1.5v-2.6 c0-0.8-0.7-1.5-1.5-1.5H8.6c-0.8,0-1.5,0.7-1.5,1.5v0.8H6.2c-0.8,0-1.5-0.7-1.5-1.5V7.6h3.6c0.8,0,1.5-0.7,1.5-1.5V3.5 C9.9,2.7,9.2,2,8.4,2H1.5C0.7,2,0,2.7,0,3.5v2.6C0,7,0.7,7.6,1.5,7.6h2.2v2.2c0,1.4,1.1,2.5,2.5,2.5h0.8v0.8c0,0.8,0.7,1.5,1.5,1.5 h2.2v2.2c0,1.4,1.1,2.5,2.5,2.5h0.8v0.8c0,0.8,0.7,1.5,1.5,1.5h6.9c0.8,0,1.5-0.7,1.5-1.5v-2.6C24,16.8,23.3,16.1,22.5,16.1z M1,6.1 V3.5C1,3.2,1.2,3,1.5,3h6.9c0.3,0,0.5,0.2,0.5,0.5v2.6c0,0.3-0.2,0.5-0.5,0.5H1.5C1.2,6.6,1,6.4,1,6.1z M8.6,13.7 c-0.3,0-0.5-0.2-0.5-0.5v-2.6c0-0.3,0.2-0.5,0.5-0.5h6.9c0.3,0,0.5,0.2,0.5,0.5v2.6c0,0.3-0.2,0.5-0.5,0.5H8.6z M23,20.3 c0,0.3-0.2,0.5-0.5,0.5h-6.9c-0.3,0-0.5-0.2-0.5-0.5v-2.6c0-0.3,0.2-0.5,0.5-0.5h6.9c0.3,0,0.5,0.2,0.5,0.5V20.3z"/>
    </symbol>
    <symbol id="my_pages" viewBox="0 0 24 24">
      <path class="st0" d="M21.6,8.5l-4.3-5.1c-0.5-0.6-1.2-0.9-1.9-0.9h-1.8l-0.2-0.2c-0.5-0.5-1.1-0.8-1.8-0.8H8.7H8c-1.3,0-2,0-2,0 C4.6,1.5,3.5,2.6,3.5,4l0.1,12.8V20c0,1.4,1.1,2.5,2.5,2.5h0.4c0.2,0,0.4-0.1,0.5-0.3c0,0,0,0,0,0c0-0.1,0-0.5,0-0.6v-1.1 c0-0.9,0.7-1.6,1.7-1.6h5.7c0.9,0,1.7,0.7,1.7,1.6v1.1c0,0.4,0,0.6,0,0.6c0.1,0.2,0.2,0.4,0.5,0.4h0.9c1.2,0,2.2-0.8,2.4-2 c1.2-0.1,2.2-1.1,2.2-2.4l0-8C22.1,9.5,21.9,8.9,21.6,8.5z M11.5,18C10.1,18,9,16.9,9,15.5s1.1-2.5,2.5-2.5s2.5,1.1,2.5,2.5 S12.9,18,11.5,18z M14,8.8c-0.6,0-1-0.4-1-1V4.6l4,4.2H14z M21.1,18.1c0,0.7-0.5,1.3-1.2,1.4v-2.7l0-6.5c0-0.6-0.2-1.3-0.7-1.7 l-4.8-5.1h0.9c0.4,0,0.9,0.2,1.1,0.5l4.3,5.1c0.2,0.3,0.4,0.6,0.4,1L21.1,18.1z"/>
    </symbol>
    <symbol id="add_box" viewBox="0 0 24 24">
      <path d="M17.016 12.984v-1.969h-4.031v-4.031h-1.969v4.031h-4.031v1.969h4.031v4.031h1.969v-4.031h4.031zM18.984 3c1.078 0 2.016 0.938 2.016 2.016v13.969c0 1.078-0.938 2.016-2.016 2.016h-13.969c-1.125 0-2.016-0.938-2.016-2.016v-13.969c0-1.078 0.891-2.016 2.016-2.016h13.969z"/>
    </symbol>
    <symbol id="fullscreen" viewBox="0 0 24 24">
      <path d="M14.016 5.016h4.969v4.969h-1.969v-3h-3v-1.969zM17.016 17.016v-3h1.969v4.969h-4.969v-1.969h3zM5.016 9.984v-4.969h4.969v1.969h-3v3h-1.969zM6.984 14.016v3h3v1.969h-4.969v-4.969h1.969z"/>
    </symbol>
    <symbol id="fullscreen_exit" viewBox="0 0 24 24">
      <path d="M15.984 8.016h3v1.969h-4.969v-4.969h1.969v3zM14.016 18.984v-4.969h4.969v1.969h-3v3h-1.969zM8.016 8.016v-3h1.969v4.969h-4.969v-1.969h3zM5.016 15.984v-1.969h4.969v4.969h-1.969v-3h-3z"/>
    </symbol>
    <symbol id="skip_previous" viewBox="0 0 24 24">
      <path d="M9.516 12l8.484-6v12zM6 6h2.016v12h-2.016v-12z"/>
    </symbol>
    <symbol id="skip_next" viewBox="0 0 24 24">
      <path d="M15.984 6h2.016v12h-2.016v-12zM6 18v-12l8.484 6z"/>
    </symbol>
    <symbol id="help_outline" viewBox="0 0 24 24">
      <path d="M12 6c2.203 0 3.984 1.781 3.984 3.984 0 2.484-3 2.766-3 5.016h-1.969c0-3.234 3-3 3-5.016 0-1.078-0.938-1.969-2.016-1.969s-2.016 0.891-2.016 1.969h-1.969c0-2.203 1.781-3.984 3.984-3.984zM12 20.016c4.406 0 8.016-3.609 8.016-8.016s-3.609-8.016-8.016-8.016-8.016 3.609-8.016 8.016 3.609 8.016 8.016 8.016zM12 2.016c5.531 0 9.984 4.453 9.984 9.984s-4.453 9.984-9.984 9.984-9.984-4.453-9.984-9.984 4.453-9.984 9.984-9.984zM11.016 18v-2.016h1.969v2.016h-1.969z"/>
    </symbol>
    <symbol id="map_marker" viewBox="0 0 16 28">
      <path d="M12 10c0-2.203-1.797-4-4-4s-4 1.797-4 4 1.797 4 4 4 4-1.797 4-4zM16 10c0 0.953-0.109 1.937-0.516 2.797l-5.688 12.094c-0.328 0.688-1.047 1.109-1.797 1.109s-1.469-0.422-1.781-1.109l-5.703-12.094c-0.406-0.859-0.516-1.844-0.516-2.797 0-4.422 3.578-8 8-8s8 3.578 8 8z"/>
    </symbol>
    <symbol id="tachometer" viewBox="0 0 28 28">
      <path d="M6 18c0-1.109-0.891-2-2-2s-2 0.891-2 2 0.891 2 2 2 2-0.891 2-2zM9 11c0-1.109-0.891-2-2-2s-2 0.891-2 2 0.891 2 2 2 2-0.891 2-2zM15.687 18.516l1.578-5.969c0.125-0.531-0.187-1.078-0.719-1.219v0c-0.531-0.141-1.078 0.187-1.219 0.719l-1.578 5.969c-1.234 0.094-2.312 0.953-2.656 2.219-0.422 1.609 0.547 3.25 2.141 3.672 1.609 0.422 3.25-0.547 3.672-2.141 0.328-1.266-0.203-2.547-1.219-3.25zM26 18c0-1.109-0.891-2-2-2s-2 0.891-2 2 0.891 2 2 2 2-0.891 2-2zM16 8c0-1.109-0.891-2-2-2s-2 0.891-2 2 0.891 2 2 2 2-0.891 2-2zM23 11c0-1.109-0.891-2-2-2s-2 0.891-2 2 0.891 2 2 2 2-0.891 2-2zM28 18c0 2.688-0.766 5.281-2.203 7.547-0.187 0.281-0.5 0.453-0.844 0.453h-21.906c-0.344 0-0.656-0.172-0.844-0.453-1.437-2.25-2.203-4.859-2.203-7.547 0-7.719 6.281-14 14-14s14 6.281 14 14z"/>
    </symbol>
    <symbol id="data_import" viewBox="0 0 24 24">
      <path class="st0" d="M0,5.8V3.6C0,1.5,3.9,0,10.3,0C17,0,21.6,1.5,21.6,3.6v2.1c0,2.1-4.6,3.6-11.2,3.6C3.9,9.4,0,7.9,0,5.8z M9.1,16.4c0-2.1,0.9-3.9,2.1-5.2c-0.3,0-0.3,0-0.6,0c-5.5,0-8.5-1.2-10-2.7C0.3,8.8,0,9.4,0,9.7v3C0,14.6,3.3,16.1,9.1,16.4z M24,17.3c0,3.6-3,6.7-6.7,6.7c-3.9,0-7-3-7-6.7c0-3.9,3-7,7-7C21,10.3,24,13.4,24,17.3z M21.6,15.5h-4.3v-2.7l-4.6,4.6l4.6,4.3 v-2.7h4.3V15.5z M9.4,18.8c-4.6,0-7.3-1.2-8.8-2.4C0.3,16.7,0,17,0,17.6v2.7C0,22.5,3.9,24,10.9,24c0.6,0,1.2,0,1.8,0 C11.2,22.8,9.7,21,9.4,18.8z"/>
    </symbol>
    <symbol id="tab" viewBox="0 0 24 24">
      <path d="M21 18.984v-9.984h-8.016v-3.984h-9.984v13.969h18zM21 3c1.078 0 2.016 0.938 2.016 2.016v13.969c0 1.078-0.938 2.016-2.016 2.016h-18c-1.078 0-2.016-0.938-2.016-2.016v-13.969c0-1.078 0.938-2.016 2.016-2.016h18z"/>
    </symbol>
    <symbol id="content_copy" viewBox="0 0 24 24">
      <path d="M18.984 21v-14.016h-10.969v14.016h10.969zM18.984 5.016c1.078 0 2.016 0.891 2.016 1.969v14.016c0 1.078-0.938 2.016-2.016 2.016h-10.969c-1.078 0-2.016-0.938-2.016-2.016v-14.016c0-1.078 0.938-1.969 2.016-1.969h10.969zM15.984 0.984v2.016h-12v14.016h-1.969v-14.016c0-1.078 0.891-2.016 1.969-2.016h12z"/>
    </symbol>
    <symbol id="number" viewBox="0 0 24 24">
      <path d="M16,3H0v19h16h8v-9v-1V3H16z M1,21V4h15v8v1v8H1z M23,21h-6v-8h6V21z M17,12V4h6v8H17z M22,9h-4l2-2L22,9z M18,16h4l-2,2L18,16z"/>
      <polygon style="fill:#0277BD" points="8.5,9.6 6.9,10.9 6,10 8.7,8 10,8 10,16 8.5,16"/>
    </symbol>
    <symbol id="open_in_new" viewBox="0 0 24 24">
      <path d="M14.016 3h6.984v6.984h-2.016v-3.563l-9.797 9.797-1.406-1.406 9.797-9.797h-3.563v-2.016zM18.984 18.984v-6.984h2.016v6.984c0 1.078-0.938 2.016-2.016 2.016h-13.969c-1.125 0-2.016-0.938-2.016-2.016v-13.969c0-1.078 0.891-2.016 2.016-2.016h6.984v2.016h-6.984v13.969h13.969z"/>
    </symbol>
    <symbol id="block" viewBox="0 0 24 24">
      <path d="M12 20.016c4.406 0 8.016-3.609 8.016-8.016 0-1.828-0.609-3.563-1.688-4.922l-11.25 11.25c1.359 1.078 3.094 1.688 4.922 1.688zM3.984 12c0 1.828 0.609 3.563 1.688 4.922l11.25-11.25c-1.359-1.078-3.094-1.688-4.922-1.688-4.406 0-8.016 3.609-8.016 8.016zM12 2.016c5.531 0 9.984 4.453 9.984 9.984s-4.453 9.984-9.984 9.984-9.984-4.453-9.984-9.984 4.453-9.984 9.984-9.984z"/>
    </symbol>
    <symbol id="file" viewBox="0 0 24 28">
      <path d="M22.937 5.938c0.578 0.578 1.062 1.734 1.062 2.562v18c0 0.828-0.672 1.5-1.5 1.5h-21c-0.828 0-1.5-0.672-1.5-1.5v-25c0-0.828 0.672-1.5 1.5-1.5h14c0.828 0 1.984 0.484 2.562 1.062zM16 2.125v5.875h5.875c-0.094-0.266-0.234-0.531-0.344-0.641l-4.891-4.891c-0.109-0.109-0.375-0.25-0.641-0.344zM22 26v-16h-6.5c-0.828 0-1.5-0.672-1.5-1.5v-6.5h-12v24h20z"/>
    </symbol>
    <symbol id="phonelink" viewBox="0 0 24 24">
      <path d="M21.984 17.016v-7.031h-3.984v7.031h3.984zM23.016 8.016c0.563 0 0.984 0.422 0.984 0.984v9.984c0 0.563-0.422 1.031-0.984 1.031h-6c-0.563 0-1.031-0.469-1.031-1.031v-9.984c0-0.563 0.469-0.984 1.031-0.984h6zM3.984 6v11.016h10.031v3h-14.016v-3h2.016v-11.016c0-1.078 0.891-2.016 1.969-2.016h18v2.016h-18z"/>
    </symbol>
    <symbol id="users" viewBox="0 0 36 32">
      <path d="M24 24.082v-1.649c2.203-1.241 4-4.337 4-7.432 0-4.971 0-9-6-9s-6 4.029-6 9c0 3.096 1.797 6.191 4 7.432v1.649c-6.784 0.555-12 3.888-12 7.918h28c0-4.030-5.216-7.364-12-7.918z"/>
      <path d="M10.225 24.854c1.728-1.13 3.877-1.989 6.243-2.513-0.47-0.556-0.897-1.176-1.265-1.844-0.95-1.726-1.453-3.627-1.453-5.497 0-2.689 0-5.228 0.956-7.305 0.928-2.016 2.598-3.265 4.976-3.734-0.529-2.39-1.936-3.961-5.682-3.961-6 0-6 4.029-6 9 0 3.096 1.797 6.191 4 7.432v1.649c-6.784 0.555-12 3.888-12 7.918h8.719c0.454-0.403 0.956-0.787 1.506-1.146z"/>
    </symbol>
    <symbol id="arrow-unsort" viewBox="0 0 16 28">
      <path d="M16 17c0 0.266-0.109 0.516-0.297 0.703l-7 7c-0.187 0.187-0.438 0.297-0.703 0.297s-0.516-0.109-0.703-0.297l-7-7c-0.187-0.187-0.297-0.438-0.297-0.703 0-0.547 0.453-1 1-1h14c0.547 0 1 0.453 1 1zM16 11c0 0.547-0.453 1-1 1h-14c-0.547 0-1-0.453-1-1 0-0.266 0.109-0.516 0.297-0.703l7-7c0.187-0.187 0.438-0.297 0.703-0.297s0.516 0.109 0.703 0.297l7 7c0.187 0.187 0.297 0.438 0.297 0.703z"/>
    </symbol>
    <symbol id="arrow-up" viewBox="0 0 16 28">
      <path d="M16 19c0 0.547-0.453 1-1 1h-14c-0.547 0-1-0.453-1-1 0-0.266 0.109-0.516 0.297-0.703l7-7c0.187-0.187 0.438-0.297 0.703-0.297s0.516 0.109 0.703 0.297l7 7c0.187 0.187 0.297 0.438 0.297 0.703z"/>
    </symbol>
    <symbol id="arrow-down" viewBox="0 0 16 28">
      <path d="M16 11c0 0.266-0.109 0.516-0.297 0.703l-7 7c-0.187 0.187-0.438 0.297-0.703 0.297s-0.516-0.109-0.703-0.297l-7-7c-0.187-0.187-0.297-0.438-0.297-0.703 0-0.547 0.453-1 1-1h14c0.547 0 1 0.453 1 1z"/>
    </symbol>
    <symbol id="arrow-left" viewBox="0 0 16 28">
      <path d="M10 7v14c0 0.547-0.453 1-1 1-0.266 0-0.516-0.109-0.703-0.297l-7-7c-0.187-0.187-0.297-0.438-0.297-0.703s0.109-0.516 0.297-0.703l7-7c0.187-0.187 0.438-0.297 0.703-0.297 0.547 0 1 0.453 1 1z"/>
    </symbol>
    <symbol id="arrow-right" viewBox="0 0 16 28">
      <path d="M9 14c0 0.266-0.109 0.516-0.297 0.703l-7 7c-0.187 0.187-0.438 0.297-0.703 0.297-0.547 0-1-0.453-1-1v-14c0-0.547 0.453-1 1-1 0.266 0 0.516 0.109 0.703 0.297l7 7c0.187 0.187 0.297 0.438 0.297 0.703z"/>
    </symbol>
    <symbol id="monitoring" viewBox="0 0 24 24">
      <path d="M9.6,17H1.4C0.6,17,0,16.3,0,15.5v-12C0,2.7,0.6,2,1.4,2h16.2C18.4,2,19,2.7,19,3.5v4h-1v-4C18,3.2,17.8,3,17.6,3H1.4 C1.2,3,1,3.2,1,3.5v12C1,15.8,1.2,16,1.4,16h8.2V17z M23.9,20.8l-1,1C22.8,22,22.7,22,22.6,22c-0.1,0-0.2,0-0.3-0.1L20,19.5 c-0.1-0.1-0.1-0.4,0-0.5l0.3-0.3l-0.8-0.8c-0.7,0.6-1.6,1-2.6,1c-2.3,0-4.1-1.8-4.1-4.1c0-2.3,1.8-4.1,4.1-4.1 c1.1,0,2.1,0.4,2.9,1.2c1.4,1.4,1.6,3.7,0.4,5.3l0.8,0.8L21,18c0.1-0.1,0.2-0.1,0.3-0.1c0.1,0,0.2,0,0.3,0.1l2.4,2.4 C24,20.5,24,20.7,23.9,20.8z M20.1,14.8c0-0.9-0.3-1.7-1-2.4c-0.6-0.6-1.5-1-2.4-1c-1.8,0-3.3,1.5-3.3,3.3c0,1.8,1.5,3.3,3.3,3.3 C18.7,18.1,20.1,16.7,20.1,14.8z M23.1,20.6l-1.8-1.8l-0.5,0.5l1.8,1.8L23.1,20.6z M11.4,10.4L11.4,10.4c0.1,0.2,0.1,0.4,0.1,0.6 c0,0.8-0.7,1.5-1.5,1.5S8.5,11.8,8.5,11c0-0.2,0.1-0.4,0.1-0.6L7.1,8.9C6.9,8.9,6.7,9,6.5,9C6.3,9,6.1,8.9,5.9,8.9l-2,2l-0.7-0.7 l2-2C5.1,7.9,5,7.7,5,7.5C5,6.7,5.7,6,6.5,6S8,6.7,8,7.5c0,0.2-0.1,0.4-0.2,0.6l1.5,1.5C9.6,9.6,9.8,9.5,10,9.5 c0.2,0,0.5,0.1,0.7,0.2l0,0l1.5-1.5C12.1,7.9,12,7.7,12,7.5C12,6.7,12.7,6,13.5,6S15,6.7,15,7.5S14.3,9,13.5,9 c-0.2,0-0.4-0.1-0.6-0.1L11.4,10.4z M13,7.5C13,7.8,13.2,8,13.5,8C13.8,8,14,7.8,14,7.5C14,7.2,13.8,7,13.5,7C13.2,7,13,7.2,13,7.5z M6.5,8C6.8,8,7,7.8,7,7.5C7,7.2,6.8,7,6.5,7C6.2,7,6,7.2,6,7.5C6,7.8,6.2,8,6.5,8z M10.5,11c0-0.3-0.2-0.5-0.5-0.5S9.5,10.7,9.5,11 c0,0.3,0.2,0.5,0.5,0.5S10.5,11.3,10.5,11z M12.6,18.4c-0.2-0.2-0.4-0.3-0.7-0.3H7.3c-0.3,0-0.5,0.1-0.7,0.3L5.9,19 c-0.2,0.2-0.2,0.6,0,0.8C6,19.9,6.1,20,6.3,20h6.5c0.3,0,0.6-0.2,0.6-0.6c0-0.1-0.1-0.3-0.2-0.4L12.6,18.4z"/>
    </symbol>
    <symbol id="verified_user" viewBox="0 0 24 24">
      <path d="M9.984 17.016l8.016-8.016-1.406-1.406-6.609 6.563-2.578-2.578-1.406 1.406zM12 0.984l9 4.031v6c0 5.531-3.844 10.734-9 12-5.156-1.266-9-6.469-9-12v-6z"/>
    </symbol>

    <symbol id="remove_circle_outline" viewBox="0 0 24 24">
      <title>remove_circle_outline</title>
      <path d="M12 20.016c4.406 0 8.016-3.609 8.016-8.016s-3.609-8.016-8.016-8.016-8.016 3.609-8.016 8.016 3.609 8.016 8.016 8.016zM12 2.016c5.531 0 9.984 4.453 9.984 9.984s-4.453 9.984-9.984 9.984-9.984-4.453-9.984-9.984 4.453-9.984 9.984-9.984zM6.984 11.016h10.031v1.969h-10.031v-1.969z"></path>
    </symbol>


    <!--MIS icons-->
    <symbol id="mis_egpp" viewBox="0 0 24 24">
      <path d="M21.6,5h-4.8V2.5c0-1.5-1-2.5-2.4-2.5H9.6C8.3,0,7.2,1.1,7.2,2.5V5H2.4C1,5,0,6.2,0,7.5v13.9 C0,22.8,1.1,24,2.4,24h19.2c1.3,0,2.4-1.2,2.4-2.5V7.5C24,6.2,22.9,5,21.6,5L21.6,5z M5.7,17.5H2.4v-5.9h3.2v1.1h-2v1.3h1.8V15H3.7 v1.3h2.1V17.5z M11.4,17.1c-0.6,0.4-1.3,0.5-2.1,0.5c-0.9,0-1.6-0.2-2.2-0.7c-0.5-0.6-0.8-1.3-0.8-2.3c0-0.8,0.3-1.7,0.9-2.2 c0.6-0.6,1.3-1,2.3-1c0.6,0,1.1,0.1,1.6,0.2V13c-0.5-0.2-1-0.5-1.6-0.5s-1,0.2-1.4,0.6c-0.3,0.4-0.5,0.8-0.5,1.5 c0,0.6,0.1,1.1,0.5,1.5c0.2,0.4,0.7,0.5,1.1,0.5c0.3,0,0.6,0,0.8-0.1v-1.2H9v-1.1h2.4V17.1z M13.8,15.4v2.1h-1.3v-5.9h2 c1.4,0,2.2,0.6,2.2,1.9c0,0.6-0.2,1.1-0.7,1.5c-0.3,0.4-0.9,0.5-1.6,0.5H13.8z M13.8,12.6v1.8h0.5c0.7,0,1-0.4,1-1 c0-0.6-0.3-0.8-1-0.8H13.8z M18.7,15.4v2.1h-1.3v-5.9h2c1.5,0,2.2,0.6,2.2,1.9c0,0.6-0.2,1.1-0.6,1.5c-0.5,0.4-1,0.5-1.7,0.5H18.7z M18.7,12.6v1.8h0.5c0.7,0,1-0.4,1-1c0-0.6-0.3-0.8-1-0.8H18.7z M14.4,5H9.6V2.5h4.7V5z"/>
    </symbol>
    <symbol id="mis_ffv" viewBox="0 0 24 24">
      <path d="M21.6,5h-4.8V2.4c0-1.3-1-2.4-2.4-2.4H9.6C8.3,0,7.2,1.1,7.2,2.4V5H2.4C1.1,5,0,6.2,0,7.5v13.9 C0,22.8,1.1,24,2.4,24h19.2c1.3,0,2.4-1.2,2.4-2.5V7.5C24,6.2,22.9,5,21.6,5L21.6,5z M7.3,12.6h-2v1.5h1.8v1.1H5.4v2.3H4v-5.9h3.3 V12.6z M11.6,12.6H9.5v1.5h1.8v1.1H9.5v2.3H8.3v-5.9h3.3V12.6z M19.9,11.5l-1.5,5.9H17l-0.9-3.8C16,13.5,16,13.2,16,13l0,0 c0,0.2-0.1,0.5-0.1,0.7l-0.9,3.8h-1.5l-1.5-5.9h1.4l0.8,4c0,0.1,0,0.4,0.1,0.6l0,0c0-0.1,0-0.4,0.1-0.6l1-4h1.4l0.9,4 c0,0.1,0,0.4,0.1,0.6l0,0c0-0.1,0-0.4,0-0.6l0.8-4H19.9z M14.4,5H9.6V2.4h4.7V5z"/>
    </symbol>
    <symbol id="mis_gr" viewBox="0 0 24 24">
      <path d="M21.6,5h-4.8V2.4c0-1.3-1-2.4-2.4-2.4H9.6C8.3,0,7.2,1.1,7.2,2.4V5H2.4C1.1,5,0,6.2,0,7.5v13.9 C0,22.8,1.1,24,2.4,24h19.2c1.3,0,2.4-1.2,2.4-2.5V7.5C24,6.2,22.9,5,21.6,5L21.6,5z M11.6,17.1c-0.6,0.4-1.3,0.5-2.1,0.5 c-0.9,0-1.6-0.2-2.2-0.7c-0.6-0.6-0.8-1.3-0.8-2.3c0-0.8,0.3-1.7,0.9-2.3c0.6-0.6,1.3-0.8,2.3-0.8c0.6,0,1,0.1,1.5,0.2V13 c-0.3-0.4-0.9-0.5-1.6-0.5c-0.5,0-0.9,0.2-1.3,0.6s-0.5,0.8-0.5,1.5c0,0.6,0.1,1.1,0.5,1.5c0.2,0.2,0.7,0.5,1.1,0.5 c0.3,0,0.6-0.1,0.8-0.1v-1.2H9.2v-1.1h2.4V17.1z M17.5,17.5H16L15,16c0-0.1-0.1-0.2-0.1-0.4c-0.1-0.1-0.1-0.1-0.2-0.2 c0-0.1-0.1-0.1-0.2-0.1c0-0.1-0.1-0.1-0.1-0.1H14v2.3h-1.4v-5.9h2.1c1.4,0,2.1,0.5,2.1,1.6c0,0.2,0,0.5-0.1,0.6 c0,0.2-0.1,0.4-0.2,0.5s-0.2,0.2-0.5,0.4c-0.1,0.1-0.2,0.2-0.5,0.2l0,0c0.1,0,0.1,0.1,0.2,0.1c0.1,0.1,0.1,0.1,0.2,0.2 s0.1,0.2,0.2,0.2c0,0.1,0.1,0.2,0.1,0.4L17.5,17.5z M14,12.5v1.7h0.5c0.3,0,0.6-0.1,0.7-0.2c0.2-0.2,0.2-0.4,0.2-0.6 c0-0.6-0.2-0.8-0.8-0.8H14z M14.4,5H9.6V2.4h4.7V5z"/>
    </symbol>
    <symbol id="mis_tr" viewBox="0 0 24 24">
      <path d="M21.6,5h-4.8V2.4c0-1.3-1-2.4-2.4-2.4H9.6C8.3,0,7.2,1.1,7.2,2.4V5H2.4C1.1,5,0,6.2,0,7.5v13.9 C0,22.8,1.1,24,2.4,24h19.2c1.3,0,2.4-1.2,2.4-2.5V7.5C24,6.2,22.9,5,21.6,5L21.6,5z M11.5,12.6H9.9v4.8H8.6v-4.8H7v-1.1h4.5V12.6z M17,17.5h-1.5L14.7,16c-0.1-0.1-0.1-0.2-0.2-0.4c0-0.1-0.1-0.1-0.2-0.2c0-0.1-0.1-0.1-0.1-0.1c-0.1-0.1-0.1-0.1-0.2-0.1h-0.3v2.3 h-1.3v-5.9h2c1.4,0,2.1,0.5,2.1,1.6c0,0.2,0,0.5,0,0.6c-0.1,0.2-0.2,0.4-0.3,0.5s-0.2,0.2-0.3,0.4c-0.2,0.1-0.3,0.2-0.6,0.2l0,0 c0.1,0,0.2,0.1,0.2,0.1c0.1,0.1,0.2,0.1,0.2,0.2c0.1,0.1,0.2,0.2,0.2,0.2c0.1,0.1,0.1,0.2,0.2,0.4L17,17.5z M13.6,12.5v1.7h0.6 c0.2,0,0.5-0.1,0.6-0.2c0.2-0.2,0.3-0.4,0.3-0.6c0-0.6-0.3-0.8-0.9-0.8H13.6z M14.4,5H9.6V2.4h4.7V5z"/>
    </symbol>
    <symbol id="mis_vgf" viewBox="0 0 24 24">
      <path d="M21.6,5h-4.8V2.4c0-1.3-1-2.4-2.4-2.4H9.6C8.3,0,7.2,1.1,7.2,2.4V5H2.4C1.1,5,0,6.2,0,7.5v13.9 C0,22.8,1.1,24,2.4,24h19.2c1.3,0,2.4-1.2,2.4-2.5V7.5C24,6.2,22.9,5,21.6,5L21.6,5z M9.9,11.5l-2,5.9H6.4l-1.8-5.9H6l1.1,4.1 c0.1,0.2,0.1,0.5,0.1,0.6l0,0c0-0.1,0.1-0.4,0.1-0.6l1.1-4.1H9.9z M15,17.1c-0.6,0.4-1.3,0.5-2.1,0.5c-0.9,0-1.6-0.2-2.2-0.7 c-0.5-0.6-0.7-1.3-0.7-2.3c0-0.8,0.2-1.7,0.8-2.3c0.6-0.6,1.4-0.8,2.3-0.8c0.6,0,1.1,0.1,1.6,0.2V13c-0.5-0.4-1-0.5-1.6-0.5 s-1,0.2-1.3,0.6c-0.3,0.4-0.6,0.8-0.6,1.5c0,0.6,0.2,1.1,0.5,1.5c0.3,0.2,0.7,0.5,1.3,0.5c0.2,0,0.5-0.1,0.7-0.1v-1.2h-1.1v-1.1H15 V17.1z M19.4,12.6h-2v1.5h1.8v1.1h-1.8v2.3h-1.3v-5.9h3.2V12.6z M14.4,5H9.6V2.4h4.7V5z"/>
    </symbol>

    <symbol id="apps" viewBox="0 0 24 24">
      <title>apps</title>
      <path d="M15.984 20.016v-4.031h4.031v4.031h-4.031zM15.984 14.016v-4.031h4.031v4.031h-4.031zM9.984 8.016v-4.031h4.031v4.031h-4.031zM15.984 3.984h4.031v4.031h-4.031v-4.031zM9.984 14.016v-4.031h4.031v4.031h-4.031zM3.984 14.016v-4.031h4.031v4.031h-4.031zM3.984 20.016v-4.031h4.031v4.031h-4.031zM9.984 20.016v-4.031h4.031v4.031h-4.031zM3.984 8.016v-4.031h4.031v4.031h-4.031z"></path>
    </symbol>
    <!--MIS icons-->
  </defs>
</svg>
